# xmcd CD database file
#
# Track frame offsets:
#	150
#	20540
#	38107
#	63402
#	78877
#	96735
#	114680
#	134862
#	154847
#	173990
#	191955
#	209780
#
# Disc length: 2977 seconds
#
# Revision: 0
# Processed by: cddbd v1.4PL0 Copyright (c) Steve Scherf et al.
# Submitted via: CD2WAV32(EN) R3.19
#
DISCID=ba0b9f0c
DTITLE=RUPAY - Music Of The Andes Peru Vo.1
DYEAR=1900
DGENRE=
TTITLE0=Pampa Lirima
TTITLE1=Pastor Solitario
TTITLE2=San Juanito
TTITLE3=Susurro
TTITLE4=Condor Pasa
TTITLE5=Vasija de Barro
TTITLE6=Chuclla
TTITLE7=Sariri
TTITLE8=Polvo en el Viento
TTITLE9=Flor de un Dia
TTITLE10=MoliendoCafe
TTITLE11=Por un pu~nado de dolares mas
EXTD=
EXTT0=
EXTT1=
EXTT2=
EXTT3=
EXTT4=
EXTT5=
EXTT6=
EXTT7=
EXTT8=
EXTT9=
EXTT10=
EXTT11=
PLAYORDER=
